<?xml version="1.0" standalone="no"?>
<!DOCTYPE svg PUBLIC "-//W3C//DTD SVG 20010904//EN"
 "http://www.w3.org/TR/2001/REC-SVG-20010904/DTD/svg10.dtd">
<svg version="1.0" xmlns="http://www.w3.org/2000/svg"
 width="1664.000000pt" height="1664.000000pt" viewBox="0 0 1664.000000 1664.000000"
 preserveAspectRatio="xMidYMid meet">
<metadata>
Created by potrace 1.14, written by Peter Selinger 2001-2017
</metadata>
<g transform="translate(0.000000,1664.000000) scale(0.100000,-0.100000)"
fill="#000000" stroke="none">
<path d="M7899 16606 c-2 -2 -40 -7 -84 -11 -138 -12 -248 -23 -395 -39 -25
-3 -99 -8 -165 -11 -65 -4 -122 -8 -126 -11 -4 -2 -29 -9 -56 -14 -26 -5 -58
-12 -70 -15 -43 -10 -58 -13 -103 -20 -25 -3 -58 -9 -73 -11 -15 -2 -56 -11
-90 -20 -93 -22 -98 -23 -147 -29 -25 -3 -77 -14 -116 -25 -40 -11 -85 -22
-100 -24 -93 -17 -144 -28 -203 -45 -36 -10 -100 -26 -141 -36 -41 -9 -79 -20
-85 -23 -5 -4 -14 -7 -20 -9 -69 -16 -140 -36 -185 -53 -30 -12 -64 -23 -75
-25 -24 -5 -177 -61 -225 -82 -19 -9 -62 -26 -95 -38 -95 -36 -228 -94 -239
-105 -5 -5 -17 -10 -25 -10 -8 0 -44 -14 -80 -31 -36 -17 -104 -49 -151 -71
-47 -21 -96 -45 -110 -53 -42 -22 -82 -43 -165 -84 -80 -39 -161 -82 -265
-139 -30 -17 -77 -42 -104 -57 -26 -14 -60 -34 -73 -45 -14 -11 -29 -20 -34
-20 -4 0 -28 -13 -52 -30 -25 -16 -50 -30 -55 -30 -6 0 -23 -10 -39 -23 -15
-12 -45 -31 -66 -42 -21 -11 -45 -28 -54 -37 -9 -10 -22 -18 -29 -18 -7 0 -25
-10 -41 -23 -15 -13 -35 -27 -43 -30 -16 -8 -100 -65 -140 -97 -14 -11 -29
-20 -33 -20 -5 0 -15 -7 -24 -15 -16 -17 -122 -92 -156 -112 -11 -6 -22 -15
-26 -20 -3 -5 -42 -36 -86 -68 -43 -33 -88 -68 -100 -78 -11 -10 -81 -69 -155
-130 -74 -61 -140 -116 -147 -121 -6 -6 -42 -38 -79 -71 -61 -53 -167 -153
-216 -203 -10 -9 -21 -20 -25 -25 -91 -88 -166 -165 -243 -248 -52 -56 -108
-116 -125 -134 -16 -18 -48 -54 -70 -81 -66 -79 -213 -258 -227 -274 -10 -12
-108 -139 -150 -195 -4 -5 -18 -23 -31 -40 -12 -16 -30 -41 -39 -55 -10 -14
-33 -47 -53 -75 -70 -98 -170 -247 -184 -273 -8 -15 -17 -29 -20 -32 -11 -9
-51 -69 -51 -76 0 -4 -10 -21 -23 -38 -13 -17 -36 -53 -52 -81 -15 -27 -31
-52 -34 -55 -3 -3 -14 -21 -25 -40 -46 -85 -64 -118 -87 -155 -14 -22 -30 -51
-37 -65 -7 -14 -30 -56 -51 -95 -21 -38 -64 -119 -95 -180 -31 -60 -61 -117
-65 -125 -5 -8 -28 -55 -51 -105 -23 -49 -53 -111 -66 -137 -14 -26 -25 -51
-26 -55 0 -5 -14 -37 -30 -73 -16 -36 -40 -90 -53 -120 -13 -30 -37 -86 -54
-124 -17 -37 -31 -73 -31 -78 0 -5 -11 -33 -24 -61 -31 -64 -48 -107 -52 -127
-2 -9 -15 -41 -28 -73 -14 -31 -28 -71 -31 -88 -3 -17 -13 -48 -21 -68 -17
-37 -50 -153 -85 -296 -19 -76 -46 -178 -53 -200 -3 -11 -14 -66 -20 -105 -4
-25 -47 -239 -91 -450 -14 -63 -27 -137 -31 -165 -3 -27 -12 -77 -20 -110 -7
-33 -16 -76 -19 -95 -3 -19 -8 -42 -10 -50 -2 -8 -7 -46 -10 -85 -3 -38 -8
-81 -11 -95 -5 -30 -12 -77 -19 -145 -4 -27 -8 -63 -10 -80 -25 -176 -25 -999
0 -1158 2 -12 7 -58 11 -102 4 -44 8 -87 9 -95 6 -40 15 -132 20 -195 3 -38
14 -119 25 -180 10 -60 21 -123 24 -140 3 -16 7 -50 10 -75 7 -62 14 -102 36
-195 10 -44 21 -100 25 -125 7 -55 57 -273 90 -395 14 -49 28 -103 31 -120 7
-36 54 -190 90 -295 14 -41 28 -85 30 -97 2 -12 17 -57 32 -100 16 -43 37
-100 47 -128 10 -27 33 -90 52 -140 19 -49 45 -117 57 -150 13 -33 30 -76 39
-95 8 -19 34 -80 57 -135 97 -230 241 -530 354 -735 38 -69 82 -151 99 -182
17 -32 34 -58 39 -58 4 0 8 -5 8 -11 0 -24 190 -323 355 -559 37 -52 76 -110
87 -127 11 -18 23 -33 27 -33 4 0 12 -10 18 -23 6 -12 20 -34 31 -47 12 -14
53 -65 92 -115 39 -49 81 -102 93 -116 12 -15 38 -46 57 -70 42 -53 166 -194
200 -230 14 -14 79 -83 145 -154 66 -70 128 -135 139 -144 10 -9 24 -22 30
-29 6 -7 19 -21 29 -30 10 -9 45 -42 76 -72 145 -138 271 -251 370 -330 24
-19 76 -61 115 -92 39 -31 78 -63 86 -70 9 -7 47 -35 84 -63 38 -27 79 -60 93
-72 13 -13 28 -23 33 -23 6 0 18 -8 28 -18 9 -9 53 -41 97 -71 44 -29 89 -61
100 -70 11 -9 32 -23 46 -30 15 -7 37 -23 50 -35 13 -11 35 -27 49 -34 29 -15
130 -77 145 -89 18 -15 286 -172 340 -199 17 -8 44 -23 60 -33 36 -23 400
-206 505 -255 71 -32 137 -62 222 -100 77 -34 186 -78 253 -103 39 -14 75 -29
80 -33 6 -4 28 -13 50 -19 45 -14 112 -39 137 -52 9 -5 30 -11 45 -13 15 -3
57 -17 93 -31 36 -14 76 -28 90 -30 14 -2 63 -19 110 -36 47 -17 94 -32 105
-33 11 -2 56 -14 100 -28 44 -14 96 -29 115 -33 35 -7 53 -12 147 -40 29 -9
67 -18 85 -21 18 -2 65 -13 103 -24 78 -23 206 -49 315 -64 25 -3 70 -10 100
-15 30 -5 89 -12 130 -16 41 -3 127 -14 190 -25 111 -19 152 -24 252 -35 61
-6 224 -25 263 -30 194 -25 760 -25 1020 0 22 2 83 7 135 10 52 3 111 7 130
10 19 2 79 7 133 10 54 4 108 8 120 11 12 2 56 11 97 19 110 22 112 23 171 30
30 3 77 10 104 15 28 5 61 12 75 14 14 2 45 9 70 14 25 6 72 13 105 17 33 3
110 17 170 31 61 14 125 27 144 30 44 6 330 80 367 95 16 7 40 14 53 16 14 2
50 13 80 25 31 11 94 33 141 48 139 46 282 99 294 108 6 5 26 12 43 15 18 4
52 15 76 26 24 11 72 31 107 44 36 14 79 32 95 41 17 9 35 16 41 16 7 0 39 14
72 30 34 17 65 30 70 30 5 0 29 11 53 24 24 13 55 27 68 31 13 4 46 20 73 36
26 16 48 26 48 24 0 -6 367 182 470 240 41 24 93 53 115 64 50 26 211 123 245
148 14 10 37 25 51 33 76 44 125 75 129 81 6 7 109 76 148 99 15 8 32 21 40
28 7 6 35 26 60 44 26 17 51 38 55 45 4 7 14 13 22 13 8 0 23 10 34 21 11 12
29 27 39 33 35 20 137 99 145 113 4 7 14 13 21 13 7 0 25 13 39 30 15 16 34
30 42 30 8 0 15 4 15 9 0 5 33 35 73 67 39 33 74 61 77 64 3 3 37 32 75 65
108 93 161 142 265 243 52 52 100 97 105 100 6 4 18 19 28 35 10 15 24 27 32
27 8 0 15 4 15 9 0 5 26 36 58 69 104 108 241 259 313 346 13 17 34 40 47 52
12 12 22 26 22 31 0 5 10 18 23 30 12 11 56 64 97 118 41 53 85 109 98 123 12
14 22 29 22 34 0 5 11 19 25 32 14 13 25 27 25 31 0 4 16 27 35 51 19 23 35
46 35 51 0 4 14 24 30 43 16 19 30 40 30 47 0 7 6 16 13 20 16 11 107 147 107
161 0 6 6 15 13 19 7 4 28 33 46 63 17 30 49 82 71 115 22 33 45 71 52 85 6
14 20 36 29 50 33 50 122 209 155 280 15 30 33 59 40 63 8 4 14 13 14 19 0 6
41 95 91 197 50 102 103 213 118 246 87 189 161 362 161 376 0 6 9 30 21 55
24 53 63 164 89 249 10 33 28 86 40 117 11 32 23 70 26 85 3 15 20 71 39 124
18 53 32 99 29 101 -2 3 10 47 26 98 17 51 30 101 30 110 0 10 13 64 29 121
17 57 33 124 37 149 7 50 9 59 16 80 9 25 37 142 44 185 3 22 15 77 25 122 25
111 27 124 34 238 3 55 8 107 10 115 2 8 7 44 10 80 4 36 9 73 11 84 2 10 6
44 9 75 4 31 8 66 10 79 2 13 7 67 10 120 4 53 9 100 10 103 2 3 7 34 11 70 3
35 8 66 9 69 2 3 7 48 11 100 14 167 9 462 -10 556 -2 11 -7 63 -10 115 -4 52
-8 121 -11 154 -2 33 -7 135 -10 227 -4 121 -11 197 -29 280 -13 62 -27 136
-30 163 -7 62 -12 87 -36 190 -10 44 -21 105 -25 135 -4 30 -17 98 -30 150
-13 52 -26 115 -29 139 -3 24 -17 87 -30 140 -14 53 -34 134 -45 181 -47 194
-80 314 -138 490 -13 41 -33 102 -43 135 -27 90 -65 193 -94 259 -14 32 -26
65 -26 72 0 7 -11 33 -25 58 -14 25 -25 50 -25 56 0 6 -12 37 -26 68 -14 31
-44 98 -67 147 -22 50 -67 144 -99 210 -32 65 -58 125 -58 131 0 7 -4 14 -9
16 -5 2 -22 30 -39 63 -28 58 -68 133 -126 240 -16 28 -34 57 -42 66 -8 8 -14
19 -14 23 0 6 -31 59 -123 211 -20 33 -79 128 -106 169 -14 21 -30 46 -36 56
-18 31 -128 195 -135 200 -3 3 -20 25 -36 50 -81 119 -96 140 -105 140 -5 0
-9 6 -9 14 0 7 -11 26 -25 42 -14 16 -56 70 -94 119 -38 50 -75 97 -83 105 -7
9 -42 52 -78 95 -65 80 -94 114 -140 165 -14 16 -50 56 -80 91 -54 61 -107
119 -130 142 -6 7 -19 20 -28 30 -117 126 -434 428 -562 537 -23 19 -49 42
-59 50 -9 8 -48 41 -86 73 -39 32 -82 69 -96 82 -14 14 -29 25 -34 25 -4 0
-24 15 -45 33 -72 61 -119 97 -129 97 -5 0 -16 8 -23 18 -7 11 -23 24 -35 30
-12 7 -28 18 -35 25 -7 8 -31 26 -53 40 -22 14 -62 42 -90 62 -27 19 -74 51
-102 70 -29 19 -72 47 -94 62 -46 30 -54 36 -221 137 -62 37 -114 72 -116 77
-2 5 -10 9 -18 9 -8 0 -33 12 -57 27 -73 46 -496 265 -562 291 -16 6 -37 16
-45 21 -8 5 -33 17 -55 26 -22 10 -62 28 -88 41 -27 13 -53 24 -59 24 -6 0
-38 13 -72 29 -33 16 -74 33 -91 37 -16 4 -35 11 -42 16 -12 9 -115 48 -263
100 -47 16 -99 36 -117 44 -17 8 -36 14 -42 14 -6 0 -53 14 -104 32 -50 17
-101 32 -112 34 -11 1 -54 14 -95 27 -41 14 -91 28 -110 32 -19 4 -73 18 -120
32 -47 14 -101 27 -120 30 -19 2 -60 11 -90 19 -90 25 -123 32 -170 39 -25 4
-93 18 -153 31 -59 14 -130 26 -156 29 -27 2 -75 8 -107 14 -32 6 -70 12 -84
15 -14 2 -36 7 -50 10 -28 6 -86 13 -175 21 -87 8 -166 16 -195 20 -38 6 -106
13 -190 20 -41 4 -91 9 -110 12 -41 6 -955 15 -961 9z"/>
</g>
</svg>
